<svg width="28" height="28" viewBox="0 0 28 28" fill="none" xmlns="http://www.w3.org/2000/svg">
<path d="M14.0001 0.666672C6.64008 0.666672 0.666748 6.64 0.666748 14C0.666748 21.36 6.64008 27.3333 14.0001 27.3333C21.3601 27.3333 27.3334 21.36 27.3334 14C27.3334 6.64 21.3601 0.666672 14.0001 0.666672ZM7.80008 22.6667C9.54675 21.4133 11.6801 20.6667 14.0001 20.6667C16.3201 20.6667 18.4534 21.4133 20.2001 22.6667C18.4534 23.92 16.3201 24.6667 14.0001 24.6667C11.6801 24.6667 9.54675 23.92 7.80008 22.6667ZM22.1867 20.8267C19.9334 19.0667 17.0934 18 14.0001 18C10.9067 18 8.06675 19.0667 5.81341 20.8267C4.26675 18.9733 3.33341 16.6 3.33341 14C3.33341 8.10667 8.10675 3.33334 14.0001 3.33334C19.8934 3.33334 24.6667 8.10667 24.6667 14C24.6667 16.6 23.7334 18.9733 22.1867 20.8267Z" fill="black"/>
<path d="M14.0002 6C11.4268 6 9.3335 8.09333 9.3335 10.6667C9.3335 13.24 11.4268 15.3333 14.0002 15.3333C16.5735 15.3333 18.6668 13.24 18.6668 10.6667C18.6668 8.09333 16.5735 6 14.0002 6ZM14.0002 12.6667C12.8935 12.6667 12.0002 11.7733 12.0002 10.6667C12.0002 9.56 12.8935 8.66667 14.0002 8.66667C15.1068 8.66667 16.0002 9.56 16.0002 10.6667C16.0002 11.7733 15.1068 12.6667 14.0002 12.6667Z" fill="black"/>
</svg>
