<svg width="24" height="24" viewBox="0 0 24 24" fill="none" xmlns="http://www.w3.org/2000/svg">
<path d="M21.9999 13.6667H13.6666V22C13.6666 22.9167 12.9166 23.6667 11.9999 23.6667C11.0833 23.6667 10.3333 22.9167 10.3333 22V13.6667H1.99992C1.08325 13.6667 0.333252 12.9167 0.333252 12C0.333252 11.0833 1.08325 10.3333 1.99992 10.3333H10.3333V2C10.3333 1.08334 11.0833 0.333336 11.9999 0.333336C12.9166 0.333336 13.6666 1.08334 13.6666 2V10.3333H21.9999C22.9166 10.3333 23.6666 11.0833 23.6666 12C23.6666 12.9167 22.9166 13.6667 21.9999 13.6667Z" fill="black"/>
</svg>
