<svg width="26" height="22" viewBox="0 0 26 22" fill="none" xmlns="http://www.w3.org/2000/svg">
<path d="M13 3.33732C14.5573 2.30266 16.672 1.66666 19 1.66666C21.3293 1.66666 23.4427 2.30266 25 3.33732V20.6707C23.4427 19.636 21.3293 19 19 19C16.672 19 14.5573 19.636 13 20.6707M13 3.33732V20.6707V3.33732ZM13 3.33732C11.4427 2.30266 9.328 1.66666 7 1.66666C4.672 1.66666 2.55733 2.30266 1 3.33732V20.6707C2.55733 19.636 4.672 19 7 19C9.328 19 11.4427 19.636 13 20.6707V3.33732Z" stroke="black" stroke-width="2" stroke-linecap="round" stroke-linejoin="round"/>
</svg>
