<svg width="28" height="28" viewBox="0 0 28 28" fill="none" xmlns="http://www.w3.org/2000/svg">
<path d="M15.3334 7.33335H12.6667V12.6667H7.33341V15.3334H12.6667V20.6667H15.3334V15.3334H20.6667V12.6667H15.3334V7.33335ZM14.0001 0.666687C6.64008 0.666687 0.666748 6.64002 0.666748 14C0.666748 21.36 6.64008 27.3334 14.0001 27.3334C21.3601 27.3334 27.3334 21.36 27.3334 14C27.3334 6.64002 21.3601 0.666687 14.0001 0.666687ZM14.0001 24.6667C8.12008 24.6667 3.33341 19.88 3.33341 14C3.33341 8.12002 8.12008 3.33335 14.0001 3.33335C19.8801 3.33335 24.6667 8.12002 24.6667 14C24.6667 19.88 19.8801 24.6667 14.0001 24.6667Z" fill="black"/>
</svg>
