<svg width="28" height="25" viewBox="0 0 28 25" fill="none" xmlns="http://www.w3.org/2000/svg">
<path d="M15.68 1.00001C8.89333 0.813348 3.33333 6.26668 3.33333 13H0.946667C0.346667 13 0.0533333 13.72 0.48 14.1333L4.2 17.8667C4.46667 18.1333 4.88 18.1333 5.14667 17.8667L8.86667 14.1333C8.9588 14.0394 9.02106 13.9202 9.04558 13.7909C9.0701 13.6616 9.05579 13.5279 9.00446 13.4067C8.95313 13.2855 8.86707 13.1822 8.75713 13.1098C8.64719 13.0374 8.51829 12.9992 8.38667 13H6C6 7.80001 10.24 3.60001 15.4667 3.66668C20.4267 3.73335 24.6 7.90668 24.6667 12.8667C24.7333 18.08 20.5333 22.3333 15.3333 22.3333C13.1867 22.3333 11.2 21.6 9.62667 20.36C9.37128 20.1588 9.05087 20.0585 8.72636 20.0782C8.40185 20.0979 8.09588 20.2361 7.86667 20.4667C7.30667 21.0267 7.34667 21.9733 7.97333 22.4533C10.0682 24.11 12.6626 25.0077 15.3333 25C22.0667 25 27.52 19.44 27.3333 12.6533C27.16 6.40001 21.9333 1.17335 15.68 1.00001ZM15 7.66668C14.4533 7.66668 14 8.12001 14 8.66668V13.5733C14 14.04 14.2533 14.48 14.6533 14.72L18.8133 17.1867C19.2933 17.4667 19.9067 17.3067 20.1867 16.84C20.4667 16.36 20.3067 15.7467 19.84 15.4667L16 13.1867V8.65335C16 8.12001 15.5467 7.66668 15 7.66668Z" fill="black"/>
</svg>
