<svg width="28" height="28" viewBox="0 0 28 28" fill="none" xmlns="http://www.w3.org/2000/svg">
<path d="M13.1813 0.946666C13.4154 0.764593 13.7035 0.665741 14 0.665741C14.2965 0.665741 14.5846 0.764593 14.8187 0.946666L25.7893 9.48C26.2704 9.85426 26.6597 10.3335 26.9273 10.8812C27.1949 11.4289 27.3337 12.0305 27.3333 12.64V24.6667C27.3333 25.3739 27.0524 26.0522 26.5523 26.5523C26.0522 27.0524 25.3739 27.3333 24.6667 27.3333H19.3333C18.6261 27.3333 17.9478 27.0524 17.4477 26.5523C16.9476 26.0522 16.6667 25.3739 16.6667 24.6667V16.6667H11.3333V24.6667C11.3333 25.3739 11.0524 26.0522 10.5523 26.5523C10.0522 27.0524 9.3739 27.3333 8.66666 27.3333H3.33332C2.62608 27.3333 1.9478 27.0524 1.4477 26.5523C0.947608 26.0522 0.666656 25.3739 0.666656 24.6667V12.64C0.666656 11.4027 1.23732 10.24 2.21332 9.48L13.1813 0.946666V0.946666ZM14 3.688L3.84799 11.584C3.68726 11.709 3.5573 11.8692 3.46809 12.0523C3.37888 12.2353 3.33277 12.4364 3.33332 12.64V24.6667H8.66666V16.6667C8.66666 15.9594 8.94761 15.2811 9.44771 14.781C9.9478 14.281 10.6261 14 11.3333 14H16.6667C17.3739 14 18.0522 14.281 18.5523 14.781C19.0524 15.2811 19.3333 15.9594 19.3333 16.6667V24.6667H24.6667V12.64C24.6672 12.4364 24.6211 12.2353 24.5319 12.0523C24.4427 11.8692 24.3127 11.709 24.152 11.584L14 3.69067V3.688Z" fill="black"/>
</svg>
