<svg width="32" height="32" viewBox="0 0 32 32" fill="none" xmlns="http://www.w3.org/2000/svg">
<path d="M11.48 29.3333C10.8293 29.3295 10.1976 29.1142 9.67999 28.72L6.91999 26.6667C6.28307 26.1701 5.86046 25.4484 5.73896 24.65C5.61746 23.8516 5.80628 23.0369 6.26665 22.3733C6.51024 22.0137 6.66504 21.6013 6.71835 21.1702C6.77166 20.7391 6.72195 20.3015 6.57332 19.8933L6.49332 19.68C6.38983 19.3105 6.20066 18.9707 5.9412 18.6881C5.68173 18.4054 5.35926 18.188 4.99999 18.0533H4.78665C4.00781 17.7914 3.36373 17.2329 2.99426 16.4989C2.6248 15.765 2.55977 14.9149 2.81332 14.1333L3.90665 10.6667C4.0073 10.265 4.19259 9.88949 4.45014 9.56527C4.70768 9.24104 5.03153 8.97558 5.39999 8.78666C5.74312 8.60986 6.11856 8.50452 6.50358 8.47702C6.88861 8.44952 7.27521 8.50042 7.63999 8.62666C8.03716 8.76033 8.46098 8.79497 8.87459 8.72759C9.28821 8.6602 9.67911 8.49282 10.0133 8.23999L10.1867 8.10666C10.4892 7.86526 10.7337 7.55906 10.9021 7.21061C11.0706 6.86216 11.1587 6.48035 11.16 6.09332V5.77332C11.1564 4.9575 11.4753 4.17329 12.0471 3.59143C12.619 3.00958 13.3976 2.6772 14.2133 2.66666H17.6133C18.0102 2.66773 18.403 2.7472 18.7691 2.9005C19.1352 3.05381 19.4674 3.27793 19.7467 3.55999C20.3337 4.15704 20.6598 4.96269 20.6533 5.79999V6.17332C20.6466 6.54099 20.7263 6.9051 20.8861 7.2363C21.0459 7.56749 21.2813 7.85649 21.5733 8.07999L21.72 8.18666C22.0192 8.41106 22.3683 8.55978 22.7374 8.62014C23.1066 8.6805 23.4848 8.65072 23.84 8.53332L24.2933 8.38666C24.6774 8.25934 25.0832 8.21068 25.4865 8.24358C25.8898 8.27649 26.2823 8.39028 26.6407 8.57818C26.9991 8.76607 27.3159 9.02422 27.5724 9.33722C27.8288 9.65022 28.0196 10.0117 28.1333 10.4L29.1867 13.76C29.4304 14.5365 29.3638 15.3773 29.0008 16.1057C28.6378 16.8342 28.0067 17.3936 27.24 17.6667L26.9733 17.76C26.5811 17.8884 26.2264 18.1112 25.9405 18.4088C25.6545 18.7064 25.446 19.0696 25.3333 19.4667C25.2272 19.8357 25.202 20.2234 25.2596 20.6031C25.3171 20.9828 25.456 21.3456 25.6667 21.6667L26.0133 22.1733C26.4731 22.8406 26.6601 23.6584 26.5362 24.4592C26.4122 25.26 25.9866 25.983 25.3467 26.48L22.6667 28.5467C22.3429 28.7943 21.9718 28.973 21.5764 29.0718C21.1809 29.1706 20.7694 29.1874 20.3673 29.1212C19.9651 29.055 19.5807 28.9072 19.2378 28.6869C18.8948 28.4665 18.6007 28.1783 18.3733 27.84L18.2133 27.6133C17.9949 27.2851 17.697 27.0176 17.3472 26.8358C16.9975 26.6539 16.6074 26.5636 16.2133 26.5733C15.8373 26.5831 15.4688 26.6811 15.1376 26.8594C14.8064 27.0377 14.5218 27.2914 14.3067 27.6L14 28.04C13.7726 28.3807 13.4778 28.6712 13.1338 28.8936C12.7899 29.1161 12.404 29.2657 12 29.3333C11.8271 29.3503 11.6529 29.3503 11.48 29.3333ZM5.86665 15.4933C6.61957 15.7618 7.29895 16.2033 7.85012 16.7822C8.40128 17.3612 8.80884 18.0615 9.03999 18.8267V18.9867C9.3279 19.7822 9.42243 20.6347 9.31579 21.474C9.20914 22.3133 8.90437 23.1151 8.42665 23.8133C8.34233 23.9065 8.29563 24.0277 8.29563 24.1533C8.29563 24.279 8.34233 24.4002 8.42665 24.4933L11.2933 26.6667C11.3307 26.696 11.374 26.7171 11.4202 26.7283C11.4664 26.7396 11.5145 26.7409 11.5612 26.732C11.6079 26.7232 11.6522 26.7045 11.6911 26.6771C11.73 26.6497 11.7626 26.6143 11.7867 26.5733L12.0933 26.1333C12.5558 25.465 13.1735 24.9188 13.8934 24.5416C14.6133 24.1643 15.4139 23.9672 16.2267 23.9672C17.0394 23.9672 17.84 24.1643 18.5599 24.5416C19.2798 24.9188 19.8975 25.465 20.36 26.1333L20.52 26.3733C20.5773 26.4547 20.6629 26.5117 20.76 26.5333C20.8045 26.5399 20.8499 26.5374 20.8935 26.5259C20.937 26.5145 20.9778 26.4943 21.0133 26.4667L23.76 24.3867C23.8561 24.3103 23.9194 24.2001 23.9367 24.0786C23.9541 23.9571 23.9243 23.8335 23.8533 23.7333L23.5067 23.2267C23.0549 22.568 22.7569 21.8163 22.6346 21.027C22.5123 20.2378 22.5688 19.4311 22.8 18.6667C23.0343 17.8632 23.4582 17.1277 24.0359 16.5221C24.6137 15.9165 25.3284 15.4585 26.12 15.1867L26.3867 15.0933C26.4978 15.0488 26.5868 14.9621 26.6343 14.8522C26.6817 14.7423 26.6838 14.6181 26.64 14.5067L25.6 11.1867C25.575 11.1286 25.5385 11.0762 25.4927 11.0326C25.4468 10.9891 25.3926 10.9553 25.3333 10.9333C25.2941 10.9134 25.2507 10.903 25.2067 10.903C25.1626 10.903 25.1192 10.9134 25.08 10.9333L24.6267 11.08C23.8598 11.3331 23.0429 11.3962 22.2463 11.2638C21.4497 11.1314 20.6971 10.8075 20.0533 10.32L20 10.2C19.3822 9.73215 18.8813 9.12747 18.5366 8.43344C18.1919 7.73941 18.0128 6.97491 18.0133 6.19999V5.78666C18.0157 5.65814 17.9679 5.53376 17.88 5.43999C17.8033 5.37067 17.7034 5.33261 17.6 5.33332H14.2133C14.159 5.33671 14.1059 5.3508 14.057 5.37477C14.0082 5.39874 13.9645 5.43212 13.9286 5.47301C13.8927 5.51389 13.8652 5.56146 13.8477 5.613C13.8302 5.66454 13.823 5.71902 13.8267 5.77332V6.10666C13.8267 6.90271 13.644 7.68815 13.2927 8.40246C12.9413 9.11676 12.4306 9.74086 11.8 10.2267L11.6267 10.36C10.9463 10.878 10.149 11.2207 9.30491 11.3579C8.46087 11.4951 7.59605 11.4225 6.78665 11.1467C6.72609 11.1263 6.66055 11.1263 6.59999 11.1467C6.52474 11.1924 6.46807 11.2632 6.43999 11.3467L5.33332 14.8267C5.29474 14.9452 5.30378 15.0741 5.35853 15.186C5.41327 15.298 5.50943 15.3843 5.62665 15.4267L5.86665 15.4933Z" fill="black"/>
<path d="M16 20.6667C15.077 20.6667 14.1748 20.393 13.4074 19.8802C12.6399 19.3674 12.0418 18.6386 11.6886 17.7859C11.3354 16.9331 11.2429 15.9948 11.423 15.0896C11.6031 14.1843 12.0475 13.3528 12.7002 12.7002C13.3528 12.0475 14.1843 11.6031 15.0896 11.423C15.9948 11.2429 16.9331 11.3354 17.7859 11.6886C18.6386 12.0418 19.3674 12.6399 19.8802 13.4074C20.393 14.1748 20.6667 15.077 20.6667 16C20.6667 17.2377 20.175 18.4247 19.2998 19.2998C18.4247 20.175 17.2377 20.6667 16 20.6667ZM16 14C15.6045 14 15.2178 14.1173 14.8889 14.3371C14.56 14.5568 14.3036 14.8692 14.1523 15.2346C14.0009 15.6001 13.9613 16.0022 14.0384 16.3902C14.1156 16.7782 14.3061 17.1345 14.5858 17.4142C14.8655 17.6939 15.2219 17.8844 15.6098 17.9616C15.9978 18.0388 16.3999 17.9991 16.7654 17.8478C17.1308 17.6964 17.4432 17.4401 17.663 17.1112C17.8827 16.7823 18 16.3956 18 16C18 15.4696 17.7893 14.9609 17.4142 14.5858C17.0392 14.2107 16.5304 14 16 14Z" fill="black"/>
</svg>
